HIERARCHY
ROOT pelvis
{
  OFFSET 0 100 0
  CHANNELS 6 Xposition Yposition Zposition Zrotation Xrotation Yrotation
  JOINT pelvis_right_femur
  {
    OFFSET -10.78128 -3.44521 -0.5502486
    CHANNELS 3 Zrotation Xrotation Yrotation
    JOINT right_femur_tibia
    {
      OFFSET -0.8047443 -44.0398 -0.1307829
      CHANNELS 3 Zrotation Xrotation Yrotation
      JOINT right_tibia_foot
      {
        OFFSET 3.006224 -47.83518 -5
        CHANNELS 3 Zrotation Xrotation Yrotation
        End Site
        {
          OFFSET 0 -5 15
        }
      }
    }
  }
  JOINT pelvis_left_femur
  {
    OFFSET 10.78128 -3.44521 -0.5502486
    CHANNELS 3 Zrotation Xrotation Yrotation
    JOINT left_femur_tibia
    {
      OFFSET 0.8047443 -44.0398 -0.1307829
      CHANNELS 3 Zrotation Xrotation Yrotation
      JOINT left_tibia_foot
      {
        OFFSET -4.370144 -48.10324 -4.275266
        CHANNELS 3 Zrotation Xrotation Yrotation
        End Site
        {
          OFFSET 0 -5 15
        }
      }
    }
  }
  JOINT pelvis_spine1
  {
    OFFSET 0 6.468898 -3.129235
    CHANNELS 3 Zrotation Xrotation Yrotation
    JOINT spine1
    {
      OFFSET 0 23.15396 4.99043
      CHANNELS 3 Zrotation Xrotation Yrotation
      JOINT spine2
      {
        OFFSET 0 20.79997 -5.064912
        CHANNELS 3 Zrotation Xrotation Yrotation
        JOINT neck
        {
          OFFSET 0 14.38658 9.616178
          CHANNELS 3 Zrotation Xrotation Yrotation
          End Site
          {
            OFFSET 0 20 0
          }
        }
      }
      JOINT right_manubrium
      {
        OFFSET -5.722621 16.35077 3.967754
        CHANNELS 3 Zrotation Xrotation Yrotation
        JOINT right_clavicle
        {
          OFFSET -13.16364 1.694482 -4.693211
          CHANNELS 3 Zrotation Xrotation Yrotation
          JOINT right_humerus
          {
            OFFSET -28.5034 -0.3100689 -2.792744
            CHANNELS 3 Zrotation Xrotation Yrotation
            JOINT right_radius
            {
              OFFSET -25.15693 0.02248979 -1.271978
              CHANNELS 3 Zrotation Xrotation Yrotation
              End Site
              {
                OFFSET -15 0 0
              }
            }
          }
        }
      }
      JOINT left_manubrium
      {
        OFFSET 5.722621 16.35077 3.967754
        CHANNELS 3 Zrotation Xrotation Yrotation
        JOINT left_clavicle
        {
          OFFSET 13.16364 1.694482 -4.693211
          CHANNELS 3 Zrotation Xrotation Yrotation
          JOINT left_humerus
          {
            OFFSET 29.39168 -1.063119 -2.237045
            CHANNELS 3 Zrotation Xrotation Yrotation
            JOINT left_radius
            {
              OFFSET 24.59957 -0.9528479 0.9047498
              CHANNELS 3 Zrotation Xrotation Yrotation
              End Site
              {
                OFFSET 15 -0 -0
              }
            }
          }
        }
      }
    }
  }
}
MOTION
Frames: 7
Frame Time: 0.0416666666667
-138.2501 106.6954 2753.284 -1.137273 -8.171746 -15.185 -0.4257477 -4.540345 -0.5391324 -0 46.40603 -0 -9.080834 6.496531 -1.30687 -5.455332 1.919736 -11.70181 -0 12.58296 -0 0.5834101 -13.1974 18.58664 -1.147056 -2.10143 6.072289 2.01042 13.08749 -7.314277 0.05023942 20.97039 6.238496 3.111856 -21.46971 6.196358 0.1968698 -25.15555 12.88479 88.50458 24.25231 -14.31147 -0 0 19.63222 -17.20354 10.18148 9.225823 3.784797 -22.84536 -4.536112 -92.53371 14.40964 27.0363 0 0 -10.74401 9.617889 11.84972 -1.503032
-138.9203 106.838 2757.964 -1.079531 -7.390741 -14.46465 -0.1573223 -10.84295 -0.1097377 -0 41.97218 -0 -7.48222 2.092976 -3.072012 -5.386041 5.720938 -12.0287 -0 10.27072 -0 0.8268292 -15.01975 17.9658 -1.526085 -1.818895 5.565292 2.223364 12.47722 -7.659383 0.02067389 20.84256 6.760145 3.548839 -22.27301 6.553516 0.5110274 -24.27529 12.95769 89.01703 25.98924 -15.35917 -0 0 18.61611 -16.08562 8.879713 7.95838 4.255906 -22.84897 -4.261498 -91.53466 13.75553 24.92529 0 0 -11.72857 11.21529 12.04057 -3.962035
-139.5907 106.384 2762.363 -0.8080212 -6.277147 -13.87631 0.06627076 -16.54053 0.1122135 -0 34.96608 -0 -6.232331 -1.595521 -4.17581 -5.384607 8.96694 -12.30632 -0 8.108843 -0 1.622102 -16.64221 17.53326 -2.076029 -1.538191 5.007985 2.359245 11.63988 -7.949453 -0.003083615 20.60781 7.360637 4.145858 -23.07123 6.908133 1.020288 -23.33895 12.95817 89.26353 28.20524 -16.1605 -0 0 17.93719 -14.99133 7.331854 6.688563 4.933935 -22.72107 -3.927976 -90.43011 12.78743 22.52179 0 0 -12.72095 13.09218 12.12088 -6.812858
-140.2697 105.4271 2766.588 -0.3972219 -4.904432 -13.48675 0.4847575 -21.60703 -0.141429 -0 27.00607 -0 -5.512818 -3.003378 -4.057067 -5.552601 11.43277 -12.45043 -0 6.555572 -0 2.967252 -18.15797 17.34289 -2.731792 -1.261617 4.428452 2.396777 10.68505 -8.141431 0.0006571731 20.30789 7.989741 4.832078 -23.84498 7.268068 1.647616 -22.38644 12.85061 89.23046 30.57774 -16.62951 -0 0 17.53578 -14.09339 5.79422 5.654979 5.747592 -22.45164 -3.533898 -89.33456 11.79705 19.95532 0 0 -13.73997 14.89907 11.99407 -9.548152
-140.9534 104.2032 2770.753 -0.001327434 -3.355304 -13.2745 1.1704 -25.90752 -0.9733773 -0 19.8681 -0 -5.655562 -1.977615 -2.655381 -5.872868 13.03264 -12.57596 -0 6.121178 -0 4.298186 -19.72259 17.31713 -3.252562 -1.026846 3.927211 2.371145 9.904699 -8.255914 0.03689296 20.03059 8.512481 5.41677 -24.4872 7.591194 2.140649 -21.58235 12.69637 89.16352 32.43026 -16.91422 -0 0 17.20725 -13.58578 4.738319 5.011018 6.478853 -22.20959 -3.18339 -88.41391 11.07828 17.67077 0 0 -14.82613 16.19185 11.76053 -11.57282
-141.6774 102.9412 2775.021 0.2080485 -1.962631 -13.12964 1.937146 -29.0436 -2.157139 -0 14.58882 -0 -6.678668 0.3404485 -0.7422928 -6.147841 13.98838 -12.62875 -0 7.118489 -0 4.700593 -21.24716 17.09915 -3.45831 -0.855114 3.582674 2.3327 9.489418 -8.34116 0.08988619 19.8465 8.842736 5.768502 -24.91431 7.828924 2.301783 -21.02703 12.58121 89.3296 33.36013 -17.25073 -0 0 16.75633 -13.5097 4.37418 4.707457 6.972148 -22.16007 -2.966885 -87.72901 10.72727 15.9783 0 0 -16.00642 16.81398 11.58045 -12.69297
-142.5176 101.7659 2779.591 0.2109482 -1.060705 -12.92341 2.547891 -30.76737 -3.253932 -0 11.08693 -0 -7.876101 2.617662 0.6389574 -6.213217 14.72975 -12.34818 -0 9.363634 -0 3.775181 -22.32467 16.2475 -3.404964 -0.732382 3.373818 2.295082 9.373898 -8.417292 0.1431702 19.76046 9.012595 5.924626 -25.15207 7.977053 2.167895 -20.67373 12.5192 89.74421 33.54304 -17.69744 -0 0 16.16546 -13.74181 4.484743 4.601536 7.256758 -22.29648 -2.892317 -87.2111 10.62314 14.7889 0 0 -17.23951 16.97237 11.49775 -13.17885
